<?xml version="1.0" encoding="UTF-8"?>
<svg xmlns="http://www.w3.org/2000/svg" xmlns:xlink="http://www.w3.org/1999/xlink" width="300px" height="300px" viewBox="0 0 300 300" version="1.1">
<g id="surface1">
<path style=" stroke:none;fill-rule:nonzero;fill:rgb(31.37255%,52.549022%,63.137257%);fill-opacity:1;" d="M 176.390625 204.777344 C 146.316406 203.546875 117.699219 191.484375 95.816406 170.816406 C 62.425781 140.128906 60.910156 95.5 60.261719 76.445312 L 60.171875 73.832031 C 60.042969 70.148438 61.601562 66.605469 64.40625 64.210938 C 67.210938 61.816406 70.957031 60.832031 74.574219 61.539062 C 145.429688 75.515625 164.972656 129.554688 166.476562 134.039062 C 175.070312 155.175781 180.105469 177.59375 181.367188 200.378906 C 181.425781 201.496094 181.03125 202.59375 180.273438 203.417969 C 179.515625 204.242188 178.457031 204.726562 177.335938 204.761719 C 177.214844 204.765625 176.894531 204.777344 176.390625 204.777344 "/>
<path style=" stroke:none;fill-rule:nonzero;fill:rgb(54.901963%,80.000001%,83.529413%);fill-opacity:1;" d="M 185.148438 230.484375 C 136.625 230.484375 112.75 201.425781 111.597656 199.839844 C 110.925781 198.917969 110.664062 197.761719 110.871094 196.640625 C 111.078125 195.519531 111.734375 194.53125 112.6875 193.910156 C 127.222656 180.613281 148.582031 177.980469 165.914062 187.351562 C 159.808594 149.523438 173.734375 130.816406 174.375 129.976562 C 175.125 128.996094 176.269531 128.402344 177.5 128.351562 C 178.734375 128.28125 179.929688 128.78125 180.75 129.703125 C 218.015625 170.417969 217.386719 198.585938 213.699219 211.75 C 213.558594 212.332031 209.273438 228.800781 193.816406 230.109375 C 190.855469 230.367188 187.960938 230.484375 185.148438 230.484375 "/>
<path style="fill:none;stroke-width:1;stroke-linecap:round;stroke-linejoin:round;stroke:rgb(20%,20%,20%);stroke-opacity:1;stroke-miterlimit:4;" d="M 55.184063 57.69 C 55.184063 57.69 34.960313 45.876563 23.097188 24.20625 M 45.227813 54.301875 C 33.298125 54.762188 27.6 47.421563 27.6 47.421563 " transform="matrix(4.166667,0,0,4.166667,0,0)"/>
<path style="fill:none;stroke-width:1;stroke-linecap:round;stroke-linejoin:round;stroke:rgb(20%,20%,20%);stroke-opacity:1;stroke-miterlimit:4;" d="M 40.528125 42.482813 C 39.968438 35.288438 42.644063 31.80375 42.644063 31.80375 C 51.478125 41.458125 51.049688 47.96625 50.325 50.550938 M 37.014375 47.421563 C 32.030625 46.208438 27.43875 43.74375 23.672813 40.26 C 15.600938 32.840625 15.605625 22.019063 15.440625 17.683125 C 15.421875 17.10375 15.666563 16.547813 16.107188 16.171875 C 16.54875 15.795938 17.136563 15.640313 17.704688 15.750938 C 34.694063 19.103438 39.019688 32.528438 39.019688 32.528438 " transform="matrix(4.166667,0,0,4.166667,0,0)"/>
</g>
</svg>
