<?xml version="1.0" encoding="UTF-8"?>
<svg id="_图层_1" data-name="图层 1" xmlns="http://www.w3.org/2000/svg" viewBox="0 0 191.34 27.86">
  <defs>
    <style>
      .cls-1 {
        fill: #fff;
      }

      .cls-2 {
        fill: #161519;
      }
    </style>
  </defs>
  <rect class="cls-1" y="0" width="191.3" height="27.86"/>
  <g id="_图层_2" data-name="图层 2">
    <g id="_图层_1-2" data-name="图层 1-2">
      <path class="cls-2" d="M87.07,15.88c-.57-.71-1.44-1.12-2.35-1.12h-3.44c-.92,0-1.79.41-2.36,1.12l-9.2,11.12c-.06.07-.05.18.02.24.03.03.08.04.12.04h6.21c.05,0,.1-.03.14-.07l5.77-7c.13-.17.34-.26.55-.26h.92c.22,0,.42.09.56.26l5.78,7s.08.07.13.07h6.22c.1,0,.18-.09.17-.19,0-.03-.01-.06-.03-.09l-9.21-11.12Z"/>
      <path class="cls-2" d="M53.27,17.27h-9.66c-.08,0-.15-.07-.15-.15,0-.02,0-.03,0-.05l4.22-11.07c.08-.21.28-.35.51-.35h.46c.23,0,.44.14.53.36l4.21,11.1c.03.07,0,.15-.07.19-.02,0-.04.01-.06.01M62.8,26.9c-.09-.2-10.23-24.9-10.23-24.9C52.02.74,50.75-.05,49.38,0h-1.88c-1.5.06-2.82,1-3.38,2.39,0,0-10,24.36-10.07,24.52-.06.12-.01.27.11.34.04.02.09.03.14.02h5.21c.13.02.25-.06.3-.18,0-.13,1.63-4.19,1.91-4.92.03-.07.09-.11.16-.11h13.12c.07,0,.14.04.17.11.27.72,1.81,4.69,1.89,4.88s.17.22.33.22h5.18c.24,0,.34-.19.24-.41"/>
      <path class="cls-2" d="M127.37.05h-4.91c-.14,0-.25.12-.25.26v10.4c.02.14-.07.27-.2.29,0,0,0,0,0,0h-11.31c-.14,0-.25-.11-.25-.25V.31c0-.14-.12-.26-.26-.26h0s-4.89,0-4.89,0c-.14-.01-.26.09-.27.23,0,.01,0,.02,0,.03v26.76c0,.14.11.25.25.25,0,0,.01,0,.02,0h4.89c.14,0,.25-.11.26-.25v-10.75c0-.14.11-.25.25-.26h11.31c.14,0,.25.12.25.26v10.75c0,.14.11.25.25.25h4.91c.14,0,.25-.11.25-.25V.31c0-.14-.1-.25-.24-.26,0,0,0,0-.01,0"/>
      <path class="cls-2" d="M160.45.05h-4.94c-.14,0-.25.11-.25.25,0,0,0,0,0,.01v15.08c0,5.06-2.17,7.38-6.3,7.38s-6.34-2.32-6.34-7.38V.31c0-.14-.1-.25-.24-.26,0,0,0,0-.01,0h-4.91c-.14,0-.25.12-.25.26v15.16c0,8,4.56,12.39,11.75,12.39s11.74-4.37,11.74-12.39V.31c0-.14-.1-.25-.24-.26,0,0,0,0-.01,0"/>
      <path class="cls-2" d="M181.3,22.72h-5.3c-.14,0-.26-.12-.26-.26v-7.11c0-.14.12-.26.26-.26h5.22c2.45,0,4.36,1.52,4.36,3.82s-1.74,3.81-4.32,3.81M175.78,4.9c0-.14.12-.25.26-.26h4.53c2.22,0,3.77,1.29,3.77,3.12s-1.55,3.16-3.77,3.16h-4.57c-.14,0-.25-.11-.26-.25l.04-5.77ZM186.62,12.73h0c-.37-.16-.08-.39-.08-.39h0c1.96-1.01,3.22-3.01,3.26-5.22,0-4-3.31-7-8.13-7h-11c-.14,0-.25.11-.25.25,0,0,0,0,0,.01v26.69c0,.14.11.25.25.25h11.18c2.4.12,4.77-.58,6.72-2,1.83-1.51,2.85-3.79,2.77-6.16-.15-2.88-1.98-5.4-4.68-6.42"/>
      <path class="cls-2" d="M96.14,0h-6.22s-.1.02-.13.05l-5.79,7.02c-.14.16-.34.26-.55.26h-.92c-.21-.01-.4-.11-.53-.27L76.24.06s-.09-.01-.14,0h-6.24c-.09-.01-.17.04-.18.13,0,.05,0,.1.04.14l9.2,11.16c.57.71,1.44,1.13,2.36,1.12h3.44c.91,0,1.78-.41,2.35-1.12L96.28.27c.06-.08.04-.18-.04-.24-.03-.02-.07-.03-.1-.03"/>
      <path class="cls-2" d="M24.73,0h-1.58c-1.93,0-1.8.21-2.83,2-2.36,4-7,11.73-7,11.73h-.05S8.61,5.92,6.26,2C5.23.21,5.35,0,3.43,0h-1.59C.16,0,0,.9,0,2.23v24.63c0,.23.18.41.41.41,0,0,0,0,.01,0h4.35c.22,0,.4-.19.41-.41V9.09h0l6.15,10.58c.29.52.84.84,1.43.84h1c.59,0,1.14-.32,1.44-.84l6.13-10.55h.06c.06,0,0,0,0,0v17.74c0,.23.18.41.41.41,0,0,.01,0,.02,0h4.32c.23,0,.41-.18.41-.41V2.23c.01-1.33-.14-2.23-1.82-2.23"/>
    </g>
  </g>
</svg>